<svg width="141" height="29" viewBox="0 0 141 29" fill="none" xmlns="http://www.w3.org/2000/svg">
<path d="M40.3334 18.883L39.0012 14.4263H34.0575L32.8284 18.883H28.7828L34.0602 1.52287H39.183L44.5363 18.883H40.3334ZM37.365 7.80811C37.0584 6.77649 36.7491 5.48833 36.4941 4.45944H36.4425C36.1875 5.49106 35.9297 6.80378 35.6475 7.80811L34.6219 11.4925H38.4368L37.3623 7.80811H37.365ZM61.1798 18.883V12.0301C61.1798 10.2016 60.591 9.1454 59.3347 9.1454C58.4393 9.1454 57.799 9.76492 57.5412 10.51C57.4381 10.7938 57.3866 11.2059 57.3866 11.5143V18.8803H53.5961V11.8227C53.5961 10.2261 53.0317 9.14267 51.8026 9.14267C50.8041 9.14267 50.2153 9.91502 49.9846 10.5591C49.8571 10.8675 49.83 11.2277 49.83 11.5389V18.8803H46.0395V10.3026C46.0395 8.73057 45.9879 7.39328 45.9364 6.28524H49.2141L49.3931 7.98551H49.4691C50.0064 7.18586 51.108 6.00141 53.2596 6.00141C54.874 6.00141 56.152 6.82562 56.692 8.13834H56.7435C57.2048 7.49426 57.7691 6.97845 58.3579 6.6182C59.0498 6.2061 59.8177 5.99868 60.7402 5.99868C63.1469 5.99868 64.9648 7.69895 64.9648 11.4597V18.8776H61.1744L61.1798 18.883ZM78.621 13.8341H70.5543C70.6818 15.4579 72.2691 16.2303 74.087 16.2303C75.4192 16.2303 76.4937 16.0502 77.5438 15.7145L78.0566 18.3672C76.7759 18.883 75.213 19.1396 73.5226 19.1396C69.2709 19.1396 66.8397 16.6669 66.8397 12.726C66.8397 9.53294 68.8123 6.00414 73.1645 6.00414C77.21 6.00414 78.7485 9.17269 78.7485 12.2894C78.7485 12.958 78.6725 13.5503 78.621 13.8341ZM72.9338 8.60503C71.295 8.60503 70.6302 10.0979 70.5271 11.1541H75.1371C75.1371 10.2016 74.7273 8.60503 72.9338 8.60503ZM87.2004 9.63665C85.7678 9.63665 84.7937 10.409 84.536 11.6207C84.4844 11.8773 84.46 12.1884 84.46 12.4968V18.8857H80.5664V10.4363C80.5664 8.58046 80.5148 7.37145 80.4633 6.2907H83.8169L83.9445 8.60775H84.0476C84.6879 6.77922 86.2237 6.00687 87.4284 6.00687C87.7865 6.00687 87.9656 6.00687 88.2478 6.05872V9.74308C87.9656 9.69123 87.6319 9.63937 87.1977 9.63937L87.2004 9.63665ZM91.7073 4.74327C90.4781 4.74327 89.6587 3.86721 89.6831 2.78647C89.6587 1.65387 90.4781 0.802372 91.7317 0.802372C92.9852 0.802372 93.7802 1.65114 93.8074 2.78647C93.8074 3.86721 92.9879 4.74327 91.7073 4.74327ZM93.6798 18.883H89.7862V6.28797H93.6798V18.883ZM96.4176 18.883V1.52287H100.336V15.5862H107.198V18.883H96.4149H96.4176ZM110.785 4.74327C109.555 4.74327 108.736 3.86721 108.76 2.78647C108.736 1.65387 109.555 0.802372 110.809 0.802372C112.063 0.802372 112.858 1.65114 112.882 2.78647C112.882 3.86721 112.063 4.74327 110.782 4.74327H110.785ZM112.757 18.883H108.864V6.28797H112.757V18.883ZM120.183 8.70873C119.237 8.70873 118.699 9.09627 118.699 9.74035C118.699 10.3326 119.185 10.641 120.723 11.1841C123.106 12.0083 124.104 13.22 124.129 15.0731C124.129 17.4175 122.284 19.1423 118.699 19.1423C117.06 19.1423 115.601 18.782 114.654 18.2662L115.346 15.4579C116.062 15.8946 117.549 16.4104 118.699 16.4104C119.85 16.4104 120.363 15.9983 120.363 15.3542C120.363 14.7101 119.977 14.4017 118.518 13.9132C115.932 13.0372 114.933 11.6207 114.958 10.1279C114.958 7.78355 116.955 6.00687 120.053 6.00687C121.513 6.00687 122.818 6.34256 123.586 6.72737L122.894 9.43196C122.33 9.12356 121.255 8.71146 120.181 8.71146L120.183 8.70873ZM130.323 9.17269V13.7331C130.323 15.2532 130.681 15.9492 131.859 15.9492C132.345 15.9492 132.73 15.8973 133.012 15.8455L133.036 18.8066C132.524 19.014 131.604 19.1423 130.502 19.1423C129.249 19.1423 128.199 18.7056 127.583 18.0615C126.866 17.3138 126.508 16.1047 126.508 14.3253V9.17269H124.845V6.28797H126.508V3.55882L130.323 2.68276V6.28797H133.115V9.17269H130.323Z" fill="#016698"/>
<path d="M136.225 0.633164V3.34049H135.47V0.633164H134.578V0H137.131V0.633164H136.225ZM140.27 3.34049L140.221 2.06324C140.205 1.66206 140.191 1.17627 140.191 0.690476H140.175C140.072 1.11622 139.934 1.5911 139.806 1.9841L139.402 3.28863H138.816L138.46 1.99501C138.352 1.60201 138.238 1.12714 138.159 0.690476H138.148C138.129 1.14079 138.113 1.6566 138.089 2.07416L138.029 3.34321H137.334L137.546 0.00272915H138.547L138.873 1.11895C138.976 1.50649 139.079 1.92132 139.155 2.31432H139.169C139.263 1.92678 139.375 1.48739 139.483 1.1135L139.839 0.00272915H140.818L141 3.34321H140.265L140.27 3.34049Z" fill="#525252"/>
<path d="M33.7563 28.1267C33.466 28.274 32.8853 28.4187 32.1392 28.4187C30.4135 28.4187 29.1138 27.3216 29.1138 25.302C29.1138 23.2824 30.4135 22.0652 32.3128 22.0652C33.0753 22.0652 33.5583 22.229 33.7672 22.3381L33.5772 22.9877C33.2788 22.8403 32.8501 22.7311 32.3427 22.7311C30.9073 22.7311 29.9523 23.6536 29.9523 25.272C29.9523 26.7812 30.8151 27.75 32.3047 27.75C32.7877 27.75 33.2761 27.6491 33.5962 27.4935L33.759 28.1239L33.7563 28.1267Z" fill="#3D6B3B"/>
<path d="M35.775 26.3909L35.1401 28.3286H34.3234L36.4045 22.1689H37.3596L39.4489 28.3286H38.6023L37.9484 26.3909H35.775ZM37.7829 25.7687L37.1832 23.9947C37.0476 23.5935 36.9553 23.2278 36.8658 22.8703H36.8468C36.7572 23.236 36.6569 23.6099 36.5375 23.9865L35.9378 25.7687H37.7829Z" fill="#3D6B3B"/>
<path d="M40.3442 28.3286V22.1689H41.2071L43.1688 25.2856C43.6219 26.0088 43.9774 26.6557 44.2677 27.2861L44.2867 27.2779C44.2134 26.4564 44.1972 25.7059 44.1972 24.7452V22.1662H44.9433V28.3259H44.1429L42.1974 25.1983C41.7715 24.5133 41.3617 23.8091 41.0524 23.1405L41.0253 23.1487C41.0714 23.9265 41.0877 24.6661 41.0877 25.6895V28.3232H40.3415L40.3442 28.3286Z" fill="#3D6B3B"/>
<path d="M46.3244 28.3286V22.1689H47.1872L49.1489 25.2856C49.6021 26.0088 49.9575 26.6557 50.2478 27.2861L50.2668 27.2779C50.1936 26.4564 50.1773 25.7059 50.1773 24.7452V22.1662H50.9235V28.3259H50.123L48.1776 25.1983C47.7516 24.5133 47.3419 23.8091 47.0326 23.1405L47.0054 23.1487C47.0516 23.9265 47.0678 24.6661 47.0678 25.6895V28.3232H46.3217L46.3244 28.3286Z" fill="#3D6B3B"/>
<path d="M53.2949 26.3909L52.66 28.3286H51.8433L53.9244 22.1689H54.8795L56.9687 28.3286H56.1222L55.4683 26.3909H53.2949ZM55.3027 25.7687L54.7031 23.9947C54.5674 23.5935 54.4752 23.2278 54.3856 22.8703H54.3666C54.2771 23.236 54.1767 23.6099 54.0573 23.9865L53.4577 25.7687H55.3027Z" fill="#3D6B3B"/>
<path d="M57.8668 22.2508C58.2114 22.1771 58.7568 22.1225 59.313 22.1225C60.1026 22.1225 60.6127 22.259 60.9953 22.5701C61.3127 22.8075 61.5054 23.1733 61.5054 23.659C61.5054 24.254 61.1147 24.7753 60.4689 25.0127V25.0318C61.0495 25.1792 61.7333 25.6622 61.7333 26.5765C61.7333 27.106 61.5244 27.5099 61.215 27.8101C60.7891 28.2031 60.0972 28.3859 59.0987 28.3859C58.5533 28.3859 58.1354 28.3505 57.8722 28.3123V22.2508H57.8668ZM58.6564 24.7725H59.3754C60.2111 24.7725 60.7022 24.3331 60.7022 23.7382C60.7022 23.015 60.1569 22.7339 59.3564 22.7339C58.9928 22.7339 58.7839 22.7612 58.6564 22.7884V24.7725ZM58.6564 27.7255C58.8111 27.7528 59.039 27.761 59.3212 27.761C60.1379 27.761 60.8922 27.458 60.8922 26.5629C60.8922 25.7223 60.1731 25.3757 59.3103 25.3757H58.6564V27.7255Z" fill="#3D6B3B"/>
<path d="M63.5838 22.1689V28.3286H62.7942V22.1689H63.5838Z" fill="#3D6B3B"/>
<path d="M64.8563 27.3598C65.2118 27.5781 65.7273 27.761 66.2727 27.761C67.0812 27.761 67.5534 27.3325 67.5534 26.7102C67.5534 26.1344 67.225 25.8042 66.4002 25.4848C65.4017 25.1273 64.7831 24.6061 64.7831 23.7382C64.7831 22.7775 65.5726 22.0652 66.7638 22.0652C67.3905 22.0652 67.8464 22.2126 68.1177 22.3654L67.9007 23.015C67.6999 22.9058 67.2929 22.7229 66.7366 22.7229C65.9009 22.7229 65.5835 23.2251 65.5835 23.6454C65.5835 24.2212 65.9552 24.5051 66.8018 24.8326C67.8382 25.2338 68.3646 25.7387 68.3646 26.642C68.3646 27.5918 67.6646 28.416 66.2211 28.416C65.6296 28.416 64.9838 28.2413 64.6582 28.023L64.859 27.357L64.8563 27.3598Z" fill="#3D6B3B"/>
<path d="M76.5344 25.624C76.4883 24.7644 76.434 23.7327 76.4449 22.9631H76.4177C76.2088 23.6863 75.9538 24.4532 75.6444 25.302L74.5618 28.2904H73.9622L72.9718 25.3566C72.6815 24.4887 72.4346 23.6918 72.2637 22.9604H72.2447C72.2257 23.7273 72.1823 24.7616 72.1253 25.6841L71.9625 28.3259H71.2082L71.6342 22.1662H72.6435L73.6881 25.1464C73.9432 25.9051 74.1521 26.582 74.3068 27.2206H74.3339C74.4886 26.5983 74.7056 25.9215 74.9797 25.1464L76.0704 22.1662H77.0798L77.4624 28.3259H76.6891L76.5344 25.6213V25.624Z" fill="#3D6B3B"/>
<path d="M79.5788 26.3909L78.9438 28.3286H78.1271L80.2082 22.1689H81.1633L83.2526 28.3286H82.406L81.7521 26.3909H79.5788ZM81.5866 25.7687L80.987 23.9947C80.8513 23.5935 80.759 23.2278 80.6695 22.8703H80.6505C80.561 23.236 80.4606 23.6099 80.3412 23.9865L79.7416 25.7687H81.5866Z" fill="#3D6B3B"/>
<path d="M84.1507 22.2508C84.5495 22.1689 85.1221 22.1225 85.6674 22.1225C86.514 22.1225 87.0566 22.2781 87.4392 22.6247C87.7485 22.8976 87.9222 23.3179 87.9222 23.7955C87.9222 24.6088 87.4121 25.1492 86.769 25.3675V25.3948C87.2411 25.5585 87.5233 25.9979 87.6698 26.6366C87.8706 27.4962 88.0144 28.0912 88.142 28.3286H87.3253C87.2249 28.154 87.0892 27.6245 86.9155 26.8576C86.7338 26.0088 86.4054 25.6868 85.6891 25.6595H84.943V28.3286H84.1534V22.2508H84.1507ZM84.9403 25.0564H85.7488C86.5927 25.0564 87.1299 24.5897 87.1299 23.8856C87.1299 23.0914 86.5574 22.742 85.7217 22.7339C85.3391 22.7339 85.0678 22.7693 84.9403 22.8075V25.0564Z" fill="#3D6B3B"/>
<path d="M89.0401 22.1689H89.8297V25.1382H89.8568C90.0196 24.9008 90.1851 24.6825 90.3398 24.4805L92.2119 22.1689H93.1942L90.9774 24.7835L93.3678 28.3314H92.4317L90.413 25.3047L89.8324 25.9816V28.3314H89.0428V22.1717L89.0401 22.1689Z" fill="#3D6B3B"/>
<path d="M97.1366 25.4412H94.7543V27.6627H97.4079V28.3314H93.9647V22.1717H97.2723V22.8403H94.7543V24.7862H97.1366V25.4439V25.4412Z" fill="#3D6B3B"/>
<path d="M99.7441 22.843H97.88V22.1662H102.414V22.843H100.542V28.3286H99.7414V22.843H99.7441Z" fill="#3D6B3B"/>
<path d="M103.89 22.1689V28.3286H103.1V22.1689H103.89Z" fill="#3D6B3B"/>
<path d="M105.271 28.3286V22.1689H106.134L108.096 25.2856C108.549 26.0088 108.904 26.6557 109.195 27.2861L109.214 27.2779C109.14 26.4564 109.124 25.7059 109.124 24.7452V22.1662H109.87V28.3259H109.07L107.124 25.1983C106.698 24.5133 106.289 23.8091 105.979 23.1405L105.952 23.1487C105.998 23.9265 106.015 24.6661 106.015 25.6895V28.3232H105.268L105.271 28.3286Z" fill="#3D6B3B"/>
<path d="M115.913 28.0557C115.557 28.184 114.857 28.3941 114.032 28.3941C113.104 28.3941 112.342 28.1567 111.742 27.5808C111.216 27.0678 110.888 26.2463 110.888 25.2856C110.896 23.4489 112.152 22.1034 114.203 22.1034C114.912 22.1034 115.468 22.259 115.731 22.3873L115.541 23.0368C115.213 22.8894 114.806 22.7721 114.187 22.7721C112.697 22.7721 111.723 23.7054 111.723 25.2501C111.723 26.7948 112.659 27.7364 114.087 27.7364C114.605 27.7364 114.96 27.6627 115.142 27.5727V25.7359H113.897V25.0973H115.915V28.0584L115.913 28.0557Z" fill="#3D6B3B"/>
<path d="M119.049 22.1689H119.839V27.6627H122.457V28.3314H119.049V22.1689Z" fill="#3D6B3B"/>
<path d="M124.129 22.1689V28.3286H123.339V22.1689H124.129Z" fill="#3D6B3B"/>
<path d="M125.401 27.3598C125.757 27.5781 126.272 27.761 126.818 27.761C127.626 27.761 128.098 27.3325 128.098 26.7102C128.098 26.1344 127.77 25.8042 126.945 25.4848C125.947 25.1273 125.328 24.6061 125.328 23.7382C125.328 22.7775 126.117 22.0652 127.309 22.0652C127.935 22.0652 128.391 22.2126 128.663 22.3654L128.446 23.015C128.245 22.9058 127.838 22.7229 127.282 22.7229C126.446 22.7229 126.128 23.2251 126.128 23.6454C126.128 24.2212 126.5 24.5051 127.347 24.8326C128.383 25.2338 128.91 25.7387 128.91 26.642C128.91 27.5918 128.209 28.416 126.766 28.416C126.174 28.416 125.529 28.2413 125.203 28.023L125.404 27.357L125.401 27.3598Z" fill="#3D6B3B"/>
<path d="M131.153 22.843H129.289V22.1662H133.823V22.843H131.951V28.3286H131.151V22.843H131.153Z" fill="#3D6B3B"/>
<path d="M13.534 8.01553C13.5557 7.17495 13.496 6.2716 13.3034 5.27546C12.8367 2.87107 11.8111 1.0862 11.0486 0C10.3187 1.08075 9.33108 2.84924 8.8454 5.2236C8.764 5.6166 8.57407 6.62639 8.57135 8.01553H8.57678C8.55508 8.85611 8.61477 9.75946 8.80741 10.7556C9.2741 13.16 10.2997 14.9449 11.0622 16.0311C11.7921 14.9503 12.7797 13.1818 13.2654 10.8075C13.3468 10.4145 13.5367 9.40467 13.5394 8.01553" fill="#3C6B3B"/>
<path d="M6.4007 12.0438C5.91502 11.528 5.34251 11.0231 4.63434 10.5427C2.92495 9.38556 1.24812 8.93525 0.146519 8.74421C0.352731 9.83042 0.813994 11.4816 1.93459 13.1955C2.12181 13.4793 2.60749 14.1971 3.43234 15.0322C3.91802 15.5453 4.49053 16.0502 5.19871 16.5305C6.90809 17.6877 8.58492 18.138 9.68653 18.329C9.48032 17.2428 9.01905 15.5917 7.89845 13.8778C7.71124 13.5939 7.22555 12.8762 6.4007 12.041" fill="#3C6B3B"/>
<path d="M4.82698 18.9867C4.31959 18.9813 3.77422 19.0222 3.17186 19.1478C1.72295 19.4507 0.651195 20.092 0 20.5642C0.659335 21.0036 1.73381 21.5931 3.17186 21.8742C3.41063 21.9206 4.02113 22.0297 4.86226 22.0216C5.36965 22.027 5.91502 21.9833 6.51738 21.8578C7.96629 21.5549 9.03804 20.9135 9.68924 20.4414C9.0299 20.002 7.95543 19.4125 6.51738 19.1314C6.27861 19.085 5.66811 18.9758 4.82698 18.984" fill="#3C6B3B"/>
<path d="M16.0628 11.8964C16.5485 11.3806 17.121 10.8757 17.8292 10.3954C19.5386 9.23819 21.2154 8.78788 22.317 8.59684C22.1108 9.68304 21.6495 11.3342 20.5289 13.0481C20.3417 13.3319 19.856 14.0497 19.0312 14.8848C18.5455 15.3979 17.973 15.9028 17.2648 16.3831C15.5554 17.5403 13.8786 17.9906 12.777 18.1816C12.9832 17.0954 13.4445 15.4443 14.5651 13.7304C14.7523 13.4465 15.238 12.7288 16.0628 11.8937" fill="#3C6B3B"/>
<path d="M17.6365 18.9867C18.1439 18.9813 18.6893 19.0222 19.2917 19.1478C20.7406 19.4507 21.8123 20.092 22.4635 20.5642C21.8042 21.0036 20.7297 21.5931 19.2917 21.8742C19.0529 21.9206 18.4424 22.0297 17.6013 22.0216C17.0939 22.027 16.5485 21.9833 15.9461 21.8578C14.4972 21.5549 13.4255 20.9135 12.7743 20.4414C13.4336 20.002 14.5081 19.4125 15.9461 19.1314C16.1849 19.085 16.7954 18.9758 17.6365 18.984" fill="#3C6B3B"/>
<path d="M8.25932 28.929C9.67093 28.929 10.8153 27.778 10.8153 26.3582C10.8153 24.9383 9.67093 23.7873 8.25932 23.7873C6.84772 23.7873 5.70338 24.9383 5.70338 26.3582C5.70338 27.778 6.84772 28.929 8.25932 28.929Z" fill="#016699"/>
<path d="M13.998 29C15.4096 29 16.5539 27.849 16.5539 26.4291C16.5539 25.0093 15.4096 23.8583 13.998 23.8583C12.5864 23.8583 11.442 25.0093 11.442 26.4291C11.442 27.849 12.5864 29 13.998 29Z" fill="#CC3333"/>
</svg>
